<svg xml:space="preserve" viewBox="356.40000000000003 278.64 419.04 462.24" version="1.1" xmlns:xlink="http://www.w3.org/1999/xlink" xmlns="http://www.w3.org/2000/svg" style="max-height: 500px" width="40" height="40">
<desc>Created with Fabric.js 5.2.4</desc>
	<defs>
</defs>
	<g id="6189e0b1-6026-4f94-99d2-d3fa876be1f8" transform="matrix(1 0 0 1 540 540)">
</g>
	<g id="344c32ff-08e7-4bb1-98aa-434803b8a233" transform="matrix(1 0 0 1 540 540)">
<rect height="1080" width="1080" ry="0" rx="0" y="-540" x="-540" style="stroke: none; stroke-width: 1; stroke-dasharray: none; stroke-linecap: butt; stroke-dashoffset: 0; stroke-linejoin: miter; stroke-miterlimit: 4; fill: #ffdd67; fill-rule: nonzero; opacity: 1;"/>
</g>
	<g transform="matrix(1 0 0 1 563.11 509.6)">
<g style="">
		<g transform="matrix(0.13 0 0 -0.13 -4.56 -5.16)">
<path stroke-linecap="round" d="M 3274 4256 C 3258 4249 3228 4224 3209 4202 L 3174 4161 L 2933 4158 L 2692 4155 L 2664 4130 C 2620 4089 2596 4025 2596 3940 L 2595 3865 L 2530 3866 C 2338 3870 2110 3829 1960 3765 C 1633 3625 1404 3407 1243 3085 C 1157 2913 1122 2773 1113 2560 C 1104 2345 1150 2130 1246 1937 C 1356 1718 1562 1492 1762 1372 C 2168 1128 2652 1105 3075 1310 C 3404 1469 3663 1762 3778 2106 C 3911 2502 3852 2901 3606 3270 C 3535 3376 3355 3559 3255 3627 C 3117 3720 2936 3797 2767 3834 L 2739 3841 L 2742 3928 L 2745 4015 L 2957 4018 L 3169 4020 L 3184 3993 C 3233 3898 3336 3857 3428 3896 C 3529 3938 3585 4053 3549 4147 C 3535 4185 3482 4239 3443 4256 C 3402 4274 3315 4273 3274 4256 z M 3391 4150 C 3411 4150 3440 4108 3440 4080 C 3440 4043 3401 4000 3368 4000 C 3355 4000 3330 4009 3313 4020 C 3286 4036 3280 4046 3280 4072 C 3280 4090 3284 4110 3288 4117 C 3299 4135 3353 4161 3368 4155 C 3376 4152 3386 4150 3391 4150 z M 2730 3710 C 2935 3668 3105 3589 3261 3460 C 3442 3311 3593 3085 3654 2872 C 3703 2701 3714 2622 3707 2462 C 3692 2077 3507 1749 3174 1517 C 3056 1435 2948 1384 2813 1348 C 2699 1317 2688 1316 2490 1316 C 2300 1315 2276 1317 2172 1342 C 2006 1382 1911 1427 1723 1554 C 1561 1664 1390 1897 1316 2107 C 1169 2532 1246 2943 1542 3305 C 1625 3406 1766 3522 1893 3592 C 2014 3659 2207 3716 2375 3734 C 2449 3741 2634 3729 2730 3710 z" transform="translate(-2479.6, -2720.12)" style="stroke: none; stroke-width: 1; stroke-dasharray: none; stroke-linecap: butt; stroke-dashoffset: 0; stroke-linejoin: miter; stroke-miterlimit: 4; fill: rgb(0,0,0); fill-rule: nonzero; opacity: 1;"/>
</g>
	<g transform="matrix(0.13 0 0 -0.13 -85.83 19.4)">
<path stroke-linecap="round" d="M 1794 2869 C 1725 2857 1633 2804 1600 2758 C 1542 2678 1525 2564 1556 2459 C 1568 2417 1584 2393 1628 2350 C 1699 2280 1768 2255 1869 2262 C 1948 2268 1999 2292 2057 2352 C 2149 2446 2171 2576 2117 2695 C 2083 2768 2069 2784 2001 2828 C 1942 2866 1866 2881 1794 2869 z M 1883 2739 C 1946 2707 1959 2632 1911 2578 C 1887 2551 1875 2545 1841 2545 C 1789 2545 1730 2597 1730 2643 C 1730 2724 1812 2775 1883 2739 z" transform="translate(-1843.4, -2566.96)" style="stroke: none; stroke-width: 1; stroke-dasharray: none; stroke-linecap: butt; stroke-dashoffset: 0; stroke-linejoin: miter; stroke-miterlimit: 4; fill: rgb(0,0,0); fill-rule: nonzero; opacity: 1;"/>
</g>
	<g transform="matrix(0.13 0 0 -0.13 84.02 19.55)">
<path stroke-linecap="round" d="M 2984 2836 C 2867 2780 2816 2698 2816 2565 C 2816 2474 2831 2432 2886 2365 C 2940 2298 3024 2260 3115 2260 C 3175 2260 3197 2265 3248 2291 C 3368 2350 3425 2450 3418 2583 C 3412 2706 3356 2789 3245 2842 C 3157 2883 3079 2882 2984 2836 z M 3176 2731 C 3193 2721 3212 2698 3219 2681 C 3257 2591 3152 2506 3067 2559 C 3002 2599 2995 2666 3050 2721 C 3084 2756 3130 2759 3176 2731 z" transform="translate(-3117.29, -2565.84)" style="stroke: none; stroke-width: 1; stroke-dasharray: none; stroke-linecap: butt; stroke-dashoffset: 0; stroke-linejoin: miter; stroke-miterlimit: 4; fill: rgb(0,0,0); fill-rule: nonzero; opacity: 1;"/>
</g>
	<g transform="matrix(0.13 0 0 -0.13 -1.18 90.12)">
<path stroke-linecap="round" d="M 2139 2168 C 2035 2085 2156 1963 2390 1914 C 2481 1895 2560 1901 2656 1934 C 2760 1969 2807 1996 2835 2037 C 2867 2085 2867 2124 2835 2155 C 2802 2189 2777 2186 2731 2145 C 2710 2126 2666 2098 2634 2083 C 2583 2060 2562 2056 2485 2056 C 2379 2057 2305 2082 2250 2135 C 2211 2173 2164 2187 2139 2168 z" transform="translate(-2480.21, -2040.81)" style="stroke: none; stroke-width: 1; stroke-dasharray: none; stroke-linecap: butt; stroke-dashoffset: 0; stroke-linejoin: miter; stroke-miterlimit: 4; fill: rgb(0,0,0); fill-rule: nonzero; opacity: 1;"/>
</g>
</g>
</g>
</svg>
